<svg width="16" height="16" viewBox="0 0 16 16" fill="none" xmlns="http://www.w3.org/2000/svg">
<g clip-path="url(#clip0)">
<path d="M6.58254 7.51994C6.91457 7.35293 7.16559 7.16691 7.3376 6.9659C7.64363 6.60387 7.79464 6.12383 7.79464 5.52878C7.79464 4.94973 7.64363 4.45469 7.3416 4.03966C6.83756 3.3636 5.98449 3.01757 4.77839 2.99957H0V12.7534H4.45537C4.95741 12.7534 5.42245 12.7104 5.85248 12.6224C6.28252 12.5334 6.65455 12.3703 6.96957 12.1323C7.2496 11.9253 7.48361 11.6683 7.66963 11.3653C7.96365 10.9072 8.11067 10.3882 8.11067 9.81013C8.11067 9.25008 7.98166 8.77305 7.72563 8.38101C7.46661 7.98898 7.08658 7.70196 6.58254 7.51994ZM1.97116 4.69371H4.12334C4.59638 4.69371 4.98641 4.74472 5.29243 4.84572C5.64646 4.99274 5.82348 5.29176 5.82348 5.7478C5.82348 6.15683 5.68847 6.44286 5.42145 6.60387C5.15242 6.76488 4.80339 6.84589 4.37536 6.84589H1.97116V4.69371ZM5.37444 10.8892C5.13642 11.0042 4.80139 11.0612 4.37236 11.0612H1.97116V8.46002H4.40536C4.8294 8.46302 5.15942 8.51902 5.39544 8.62403C5.81548 8.81405 6.0245 9.16208 6.0245 9.67112C6.0245 10.2712 5.80848 10.6752 5.37444 10.8892Z" fill="white"/>
<path d="M14.4622 3.45456H10.2249V4.66866H14.4622V3.45456Z" fill="white"/>
<path d="M15.9342 8.24597C15.8462 7.68093 15.6522 7.18389 15.3502 6.75485C15.0191 6.26881 14.5991 5.91278 14.0881 5.68776C13.579 5.46175 13.006 5.34874 12.3679 5.34974C11.2968 5.34974 10.4268 5.68476 9.75372 6.34982C9.08267 7.01687 8.74664 7.97595 8.74664 9.22605C8.74664 10.5592 9.11767 11.5222 9.86373 12.1133C10.6068 12.7053 11.4649 13.0004 12.4389 13.0004C13.618 13.0004 14.5351 12.6493 15.1902 11.9493C15.6092 11.5072 15.8462 11.0722 15.8982 10.6452H13.9461C13.833 10.8562 13.702 11.0212 13.552 11.1412C13.28 11.3612 12.926 11.4712 12.4919 11.4712C12.0789 11.4712 11.7289 11.3802 11.4369 11.1992C10.9548 10.9092 10.7028 10.4011 10.6708 9.67808H15.9982C16.0062 9.05503 15.9862 8.576 15.9342 8.24597ZM10.7188 8.43298C10.7888 7.96395 10.9588 7.59192 11.2288 7.3169C11.4989 7.04287 11.8809 6.90486 12.3699 6.90386C12.821 6.90386 13.198 7.03287 13.505 7.29189C13.808 7.55291 13.9791 7.93194 14.0141 8.43298H10.7188Z" fill="white"/>
</g>
<defs>
<clipPath id="clip0">
<rect width="16" height="16" fill="white"/>
</clipPath>
</defs>
</svg>
