<svg width="16" height="16" viewBox="0 0 16 16" fill="none" xmlns="http://www.w3.org/2000/svg">
<path fill-rule="evenodd" clip-rule="evenodd" d="M7.99998 15.9991C3.58864 15.9991 0 12.4102 0 7.99961C0 3.58985 3.58864 0.000976562 7.99998 0.000976562C12.4113 0.000976562 16 3.58985 16 7.99961C16 12.4102 12.4113 15.9991 7.99998 15.9991ZM14.3935 9.03757C14.1722 8.96858 12.3892 8.43591 10.3602 8.76049C11.2072 11.0874 11.552 12.984 11.6181 13.3771C13.0708 12.3949 14.1053 10.8393 14.3935 9.03757ZM10.5298 13.9703C10.4329 13.4023 10.057 11.422 9.14781 9.06026C9.13412 9.06502 9.11989 9.06921 9.10512 9.07449C5.45327 10.3461 4.14213 12.8802 4.02545 13.1184C5.12294 13.974 6.50313 14.4848 7.99998 14.4848C8.89675 14.4848 9.75215 14.3009 10.5298 13.9703ZM3.18928 12.3391C3.33572 12.0878 5.11317 9.14558 8.45261 8.06603C8.53715 8.03862 8.62224 8.01333 8.70759 7.9896C8.5453 7.62108 8.36858 7.2538 8.18262 6.89028C4.94909 7.85817 1.81122 7.81812 1.52744 7.81183C1.52558 7.87768 1.52457 7.9438 1.52457 8.00965C1.52457 9.67301 2.15497 11.1913 3.18928 12.3391ZM1.66127 6.68374C1.9511 6.68739 4.61873 6.69848 7.64782 5.89497C6.57507 3.98738 5.41774 2.38378 5.24676 2.1504C3.43531 3.00444 2.08094 4.67443 1.66127 6.68374ZM6.48258 1.71545C6.66171 1.95492 7.83769 3.55615 8.89885 5.50586C11.2018 4.64181 12.1761 3.33274 12.2923 3.16727C11.1489 2.15199 9.64516 1.53579 7.99995 1.53579C7.47735 1.53579 6.96942 1.59795 6.48258 1.71545ZM13.0123 3.91521C12.8761 4.10018 11.7904 5.49112 9.39647 6.4677C9.5472 6.77701 9.69151 7.09101 9.82641 7.40612C9.8736 7.51835 9.92019 7.62953 9.96552 7.74017C12.1202 7.46933 14.261 7.90323 14.4752 7.94907C14.4607 6.42082 13.9146 5.01744 13.0123 3.91521Z" fill="white"/>
</svg>
